/* XPM */
static char *_e12b29e9b244e0d8ad736026daaca1eKmKWhvCj4b3bSiJi[] = {
/* columns rows colors chars-per-pixel */
"50 50 212 2 ",
"   c #040404",
".  c #090906",
"X  c #0C0A0A",
"o  c #080608",
"O  c #110E0B",
"+  c #0F100C",
"@  c #15110E",
"#  c #18130F",
"$  c #141412",
"%  c #1B1512",
"&  c #141A14",
"*  c #1D1A15",
"=  c #1C1B19",
"-  c #16141B",
";  c #130E11",
":  c #221A16",
">  c #251D19",
",  c #281E1C",
"<  c #1C2A1E",
"1  c #1A2319",
"2  c #2B221C",
"3  c #27231C",
"4  c #31261F",
"5  c #32281F",
"6  c #1D0E2D",
"7  c #160B35",
"8  c #1E2A20",
"9  c #1E3322",
"0  c #272726",
"q  c #352A22",
"w  c #3B2D25",
"e  c #362B26",
"r  c #273629",
"t  c #3C3428",
"y  c #353338",
"u  c #240E3C",
"i  c #42352C",
"p  c #49372D",
"a  c #4B3A2F",
"s  c #433127",
"d  c #4D3B32",
"f  c #473735",
"g  c #513F34",
"h  c #354A38",
"j  c #36553B",
"k  c #554135",
"l  c #5B463A",
"z  c #5D493B",
"x  c #564338",
"c  c #624B3E",
"v  c #684E3F",
"b  c #1A0D56",
"n  c #180E4D",
"m  c #2D114F",
"M  c #0E2144",
"N  c #202C44",
"B  c #363657",
"V  c #2A334B",
"C  c #143570",
"Z  c #312E78",
"A  c #3E1267",
"S  c #46245B",
"D  c #55297E",
"F  c #531C7A",
"G  c #3E5258",
"H  c #3D6643",
"J  c #3D7744",
"K  c #28457A",
"L  c #3E537E",
"P  c #384971",
"I  c #485A43",
"U  c #50504E",
"Y  c #644D40",
"T  c #6C5244",
"R  c #675646",
"E  c #7B5D4B",
"W  c #735848",
"Q  c #695B52",
"!  c #45694A",
"~  c #46784B",
"^  c #4A7650",
"/  c #527656",
"(  c #4D6A52",
")  c #7E614E",
"_  c #7B6452",
"`  c #766F53",
"'  c #82624F",
"]  c #846451",
"[  c #8C6956",
"{  c #876B55",
"}  c #916E5A",
"|  c #94715C",
" . c #99775D",
".. c #89735C",
"X. c #9B7661",
"o. c #9D7962",
"O. c #957961",
"+. c #A47C64",
"@. c #A87F69",
"#. c #4D8854",
"$. c #528C5A",
"%. c #54855A",
"&. c #4D9456",
"*. c #52945B",
"=. c #549B5C",
"-. c #49824F",
";. c #51A75C",
":. c #53A85D",
">. c #59A15F",
",. c #4FA75A",
"<. c #599C63",
"1. c #56A661",
"2. c #56A961",
"3. c #5AAB64",
"4. c #5AA664",
"5. c #609068",
"6. c #AB836A",
"7. c #A68268",
"8. c #B2866E",
"9. c #B4886E",
"0. c #B58971",
"q. c #BB8D74",
"w. c #BE9175",
"e. c #BF937A",
"r. c #C19376",
"t. c #CC9B7D",
"y. c #C49479",
"u. c #D29E7E",
"i. c #29178A",
"p. c #33238F",
"a. c #371DB6",
"s. c #3E25B7",
"d. c #153F89",
"f. c #521787",
"g. c #581893",
"h. c #433196",
"j. c #6B319D",
"k. c #6E1DB4",
"l. c #7424B9",
"z. c #16408A",
"x. c #1C4392",
"c. c #1F56BA",
"v. c #275DBF",
"b. c #73429E",
"n. c #5775B1",
"m. c #5673AF",
"M. c #484E8C",
"N. c #3F26C2",
"B. c #583FCE",
"V. c #4930C8",
"C. c #5635F3",
"Z. c #4A29EB",
"A. c #761DC5",
"S. c #2B68D5",
"D. c #2F75F1",
"F. c #3076F2",
"G. c #256EEE",
"H. c #5941D3",
"J. c #6C4DFE",
"K. c #6546FC",
"L. c #7658FF",
"P. c #6E50FE",
"I. c #4378D6",
"U. c #8E39D6",
"Y. c #8C24E6",
"T. c #9A34F4",
"R. c #9430EB",
"E. c #A13EF7",
"W. c #AC4CFE",
"Q. c #A441F7",
"!. c #B35DFD",
"~. c #B054FF",
"^. c #8468FE",
"/. c #8C73FE",
"(. c #957AFF",
"). c #AC5FE9",
"_. c #C47DFE",
"`. c #498AFD",
"'. c #4E90FF",
"]. c #5692FC",
"[. c #669DFE",
"{. c #79A6FD",
"}. c #6B8DCF",
"|. c #CA9D83",
" X c #D6A383",
".X c #C9A08A",
"XX c #E5AD8C",
"oX c #E6B18C",
"OX c #F4B895",
"+X c #9D86FF",
"@X c #A289FF",
"#X c #B29CFF",
"$X c #83ADFD",
"%X c #8CB2FD",
"&X c #91B6FF",
"*X c #96BAFE",
"=X c #85A8EA",
"-X c #B7A2FF",
";X c #C887FE",
":X c #D49DFF",
">X c #CD92FE",
",X c #DCB4FE",
"<X c #E0B6FE",
"1X c #A3C2FE",
"2X c #AAC8FE",
"3X c #BCD5FF",
"4X c #B3CEFD",
"5X c #CEC1FE",
"6X c #C9DCFF",
"7X c #E4C0FE",
"8X c #D8E6FF",
"9X c #E2EAFF",
/* pixels */
";.;.;.;.;.;.;.;.;.;.;.;.;.,.;.;.;.;.,.;.;.;.;.;.;.;.;.;.,.;.;.;.;.;.;.;.;.;.;.;.;.;.;.;.;.;.;.;.;.;.",
";.;.;.;.;.;.;.;.;.;.;.;.;.;.;.;.;.;.;.;.;.;.,.;.;.;.;.;.;.;.;.;.;.;.;.;.;.;.;.;.;.;.;.;.;.;.;.;.;.;.",
";.;.;.;.;.;.;.;.;.;.;.;.;.;.;.;.;.;.;.;.;.;.;.;.;.;.;.;.;.;.;.;.;.;.;.;.;.;.;.,.,.;.;.;.;.;.;.;.;.;.",
";.;.;.;.;.;.;.,.;.;.;.;.;.;.;.;.;.;.;.;.;.;.;.;.;.;.;.;.;.;.;.;.;.;.;.;.;.;.;.;.;.;.;.;.;.;.;.;.;.;.",
";.;.;.;.;.;.;.;.;.;.;.;.;.;.;.;.;.;.;.;.;.;.;.;.;.;.,.;.;.,.;.;.;.;.;.;.;.;.;.;.;.;.;.;.,.;.;.;.;.;.",
";.;.;.;.;.;.;.;.;.;.;.;.;.;.;.;.;.;.;.;.;.;.;.;.;.;.;.;.;.;.;.;.;.;.;.;.;.;.;.;.;.;.;.;.;.;.;.;.,.;.",
";.;.;.;.;.;.;.;.;.;.;.;.;.;.;.;.;.,.;.;.;.;.;.;.;.;.;.;.;.;.;.;.;.;.;.;.;.;.;.;.;.;.;.;.;.;.;.;.;.;.",
";.;.;.;.;.;.;.;.;.;.;.;.;.;.;.;.;.;.;.;.;.;.;.,.;.;.;.;.;.;.;.;.;.;.;.;.;.;.;.;.;.;.;.;.;.;.;.;.;.;.",
";.;.;.;.;.;.;.;.;.,.;.;.:.;.;.;.;.;.;.;.1.;.;.,.1.;.;.;.;.;.;.;.1.;.;.;.;.;.;.;.;.;.;.;.:.;.:.:.;.;.",
";.;.;.;.;.;.;.;.;.;.;.;.;.:.:.:.;.;.;.;.,.;.;.;.;.;.;.;.;.;.;.;.,.;.;.;.;.;.;.;.;.;.;.;.;.;.;.:.;.;.",
";.;.;.;.;.;.;.;.;.;.;.,.;.;.;.;.;.;.;.;.,.1.;.;.;.;.;.;.;.;.;.;.;.;.,.1.;.;.;.;.;.;.;.;.;.;.;.;.;.;.",
";.;.;.;.;.;.;.;.;.;.;.:.;.:.;.:.;.;.,.1.,.,.,.,.;.;.;.;.;.;.;.;.;.;.,.,.;.;.;.;.;.,.;.;.;.;.;.;.;.;.",
",.;.;.;.;.;.;.;.;.;.;.;.;.:.:.:.1.( ( ! <.,.,.1.;.;.,.1.;.,.;.;.,.1.,.,.;.;.;.;.;.;.;.;.;.;.;.;.;.,.",
";.;.;.;.;.;.;.;.;.;.;.;.;.1.:.:.<.6 6 6 / ,.;.;.;.;.,.;.;.1.<.<.<.2.;.;.;.;.;.;.;.;.;.;.;.;.;.;.:.,.",
";.;.;.;.;.;.;.;.;.:.:.:.1.;.:.$.6 W.W.W.A H 2.;.;.2.;.;.;./       <.:.:.:.:.;.:.:.:.:.;.;.:.;.;.;.;.",
";.;.;.;.;.;.;.;.*.< < 8 8 ~ ~ B U.,X,X;XU.D h &.8 8 &.1.J B B.B.B.y < ~ ~ 8 < < 3 1 #.;.;.;.;.;.;.;.",
";.;.;.;.^ H H ! ( ) s k k I U j.:X<X<X>XE.f.1 ! M.L ( &.H b P./.@Xh.Z U I p d p E > ^ #.H H ! :.;.;.",
";.;.;.;.0 : 2 , z t.' E ' S f._.7X:X:X;XE.f.o B {.{.G #.G Z ^.#X5X/.L.p.y ) [ ' |.s ! I 2 2 . ;.:.;.",
";.;.=.,.3 6.t.8.} # # O . j.!._.:X:X_.~.R.f.V =X2X1X{.V i.C.L.(.#X,X/.K.h.> W % * $ $ Y w.t.O =.;.;.",
";.$.$ $   O % x  .# 8.[ : j.!._.;X_.~.T.A L =X6X6X1X{.N Z C.L.(.#X#X^.J.h.o , @.0. Xe.Y @ %   $ &.;.",
";.&.. |  .] E T c ) w.g F U.W.!.!.~.T.f.M.}.3X8X8X4X$Xy i.Z.J.^.@X@X^.J.H.Z , q.r.' l c W E | . #.;.",
"=.^ o q.oXt.@.W k } 8.> l.E.W.W.W.W.Y.u n.2X8X9X8X3X&XP i.V.K.J.^./.L.J.J.V.- [ } g w c } | q.X ~ =.",
"^     . 8.r.v a } O [ % l.E.W.W.W.W.Y.m n.1X8X9X8X3X2X[.K n C.J.J.J.J.J.K.a.o   o [ r.T o       o ! ",
"J 2 0.0.2 # . a |   O   l.E.W.W.W.Y.u m.&X2X3X6X3X3X2X[.x.b C.K.J.J.P.P.C.a.% ' 8.f '  X9.% 8.9.2 ~ ",
"J @ a XX, z '  .8.' ' ' S l.T.T.T.Y.7 m.&X1X2X2X2X2X%X].K b Z.C.Z.C.C.C.s.n o q s # | +.s . p a / *.",
"&.h ; } $ } q.X.E E r.r.q m f.k.Y.g.Z }.$X&X&X&X&X&X{.`.C 7 a.Z.a.p.p.i.b O p   d # c d % g g W ( *.",
",.*.$ % O [ X.c O O 8.8.4 O # m A.- I.].[.{.{.{.{.{.'.D.C   7 N.0 0 = X ; w +.o 8.s O X q 9.0.OXw ~ ",
",.*.$ e.r.w   a }         | u.W X r S.`.'.'.'.'.'.'.D.G.C     0 .XOXd ] r.r.+.X [ 0.r.Y     X q.s %.",
";.*.r oXg O a +.9.] o | ) l Y [ Q - M v.D.D.F.D.F.F.C M U } } X.|._ y 2 s q 4   +.c q W 8.]   f 0 ^ ",
";.<.e } d O c  .W T o r.E > > z x o d K z.c.S.d.d.d.y s l W W _ W Q d : : l d   T : s ' o.8.O ! ( $.",
";.*.r y W > s p O 4 s } 2 * w f , 2 [ g 0 Z d.X 4 4 ] +.a O q e # T E 4 g u.0.5   2 0.[ 2 X.I ;.:.;.",
";.2.>.4.e . . o q q.oXw   T 9.6.] ' 2 ] 8.T ; , 8.8.0.q.l s t.|.O O O   v OXXX9.O @.OX' o q <.;.:.:.",
",.;.;.;.0 _ 7.R e r.y.6.2 % * * @ : } p : % 2 [ : : > * @ i r.9.X } 7.s # 2 > :   : 3 c ) , 1.,.;.;.",
";.;.;.;.H R Y e % l z z >   q ) l   a * z '  .6.Y Y c * w } oXu.T v c c v R v ' X p Y z p 8 2.;.;.;.",
";.;.;.;.;.I r r 8   w w q @ z OXq.  3 . +.OXOXq.o.o.q.k v 6.u.y.+.#   z  .7.u.t.@ W o.k . G 2.;.;.;.",
";.,.;.;.:.:.;.2.%.$ oXXXq.z Y XXt.. 7.w {  X X| X # | 8.k + % # $   @ & + t w.@ & & = & h 1.,.,.;.;.",
";.;.;.;.;.;.;.;.&.+ 4 4 3 ^ ^ q 2 . ] 5 { ) 2 * & o.t 1 + t 7.7.7.* %.<.( + 3 . <.<.<.=.=.;.;.;.;.;.",
";.;.;.;.;.;.;.;.=.-.~ ~ ~ &.*.! & _ 7...z 3 9 H 1  X7.{ _ Q h t t @ $.;.=.~ ~ -.;.;.:.;.,.,.;.:.;.;.",
";.;.;.;.;.;.;.;.;.,.;.;.;.;.,.*.1 { { ` e 9 ! &.1  ...` { ` j j j j =.;.,.;.;.;.;.:.;.;.;.;.;.,.;.;.",
";.;.,.;.;.;.;.;.;.;.;.;.;.;.;.&.< 9 9 < 9 ~ ;.*.9 9 9 9 9 H ,.,.:.:.,.;.,.,.;.;.;.;.:.;.;.;.;.:.;.;.",
";.;.;.;.;.;.;.;.;.;.;.;.;.;.;.;.4.3.:.4.:.4.;.;.3.1.2.3.3.:.;.;.;.;.;.;.;.;.;.;.;.;.;.;.;.;.;.;.;.;.",
";.;.;.;.;.;.;.;.;.;.;.;.;.;.;.;.;.;.;.;.;.;.;.;.,.;.;.;.;.;.;.;.;.;.;.;.;.;.;.;.;.;.;.;.;.;.;.;.;.;.",
";.;.;.;.;.;.;.;.;.;.;.;.;.;.;.;.:.;.;.;.;.;.;.;.;.;.;.;.;.;.;.:.;.;.;.;.;.;.;.;.;.;.;.;.;.;.;.;.;.;.",
";.;.;.;.;.;.;.;.;.;.;.;.;.;.;.;.:.;.;.;.;.;.;.;.;.;.;.;.;.;.;.;.;.;.;.;.;.;.;.;.;.;.;.;.;.;.;.;.;.;.",
";.;.;.;.;.;.;.;.;.;.;.;.;.,.;.;.;.;.;.;.;.;.;.:.;.;.;.;.;.;.;.;.;.;.;.;.;.;.;.;.:.;.;.;.;.;.;.;.;.;.",
";.;.;.;.;.;.;.;.;.;.;.;.;.;.;.;.;.;.;.;.;.;.;.;.;.;.;.;.;.;.;.;.;.;.;.;.;.;.;.;.;.;.;.;.;.;.;.;.;.:.",
";.;.;.;.:.:.;.;.;.;.;.;.;.;.;.;.;.;.;.;.;.;.;.;.;.;.;.;.;.;.;.;.;.;.;.;.:.;.;.;.;.;.:.;.;.;.;.;.:.:.",
";.;.;.;.:.:.:.:.:.;.:.:.;.;.;.;.:.;.;.;.;.;.:.:.;.;.;.;.:.:.:.:.:.;.;.;.:.;.>.:.:.:.:.:.:.:.:.;.:.:.",
":.2.:.:.;.:.:.2.;.:.:.:.:.:.:.:.:.4.:.:.:.2.2.:.:.:.3.:.3.3.3.:.:.:.3.:.:.3.3.:.3.3.:.3.:.3.:.3.:.3.",
"3.3.3.2.3.3.3.3.2.3.3.3.:.3.3.3.3.3.3.3.4.4.3.3.3.3.3.3.3.3.3.3.3.3.3.3.3.3.3.3.3.3.3.3.3.3.3.3.3.3."
};
