/* XPM */
static char *dc4fa85a2c5047c5a986f902a65a45aaS6r5r5khvYB5eMB1[] = {
/* columns rows colors chars-per-pixel */
"50 50 10 1 ",
"  c #53A75A",
". c #51A75C",
"X c #53A75C",
"o c #54A65C",
"O c #50A85C",
"+ c #52A85D",
"@ c #54A85D",
"# c #55A95E",
"$ c #56AA5F",
"% c #56A961",
/* pixels */
"@++oXXXXooXXXO....................................",
"%@@+XoXX..XX.O....................................",
"%@++ +XX..........................................",
"@++XX+  ..........................................",
"Xo..XOXO..........................................",
"Xoo.XOXO..........................................",
"XX....OO..........................................",
"OO................................................",
"X.................................................",
"OO................................................",
"..................................................",
"..................................................",
"..................................................",
"..................................................",
"..................................................",
"..................................................",
"..................................................",
"..................................................",
"..................................................",
"..................................................",
"..................................................",
"..................................................",
"..................................................",
"..................................................",
".o...XO....ooX..oo..oo............................",
"XX..oX......XX..X...X.............................",
"XO..........XO..XO..XO............................",
"OO.........OXO...O...O............................",
".....XO...........................................",
".....X............................................",
"..................................................",
"..................................................",
"..................................................",
"..................................................",
"..................................................",
"..................................................",
"..................................................",
"..................................................",
"..................................................",
"..................................................",
"..................................................",
"..................................................",
"..................................................",
"..................................................",
"..................................................",
"..................................................",
"..................................................",
"..................................................",
"..................................................",
".................................................."
};
