/* XPM */
static char *_393f41214d845e1f13e9348cf049ba0dpXjrngBQiRURCdy[] = {
/* columns rows colors chars-per-pixel */
"50 50 231 2 ",
"   c #16341A",
".  c #18361C",
"X  c #17381B",
"o  c #193B1E",
"O  c #1D3E22",
"+  c #233D24",
"@  c #2C3D2C",
"#  c #323C2D",
"$  c #323D34",
"%  c #3C3930",
"&  c #1E4323",
"*  c #1B4B25",
"=  c #0D5E2B",
"-  c #0E5525",
";  c #1E532D",
":  c #155F2C",
">  c #175629",
",  c #155C32",
"<  c #1C5B34",
"1  c #1D5530",
"2  c #234625",
"3  c #2B4223",
"4  c #204B26",
"5  c #2A432C",
"6  c #244D2A",
"7  c #294A2C",
"8  c #334429",
"9  c #354629",
"0  c #25532B",
"q  c #28562D",
"w  c #23592D",
"e  c #2A5A2E",
"r  c #235027",
"t  c #38502E",
"y  c #2E4334",
"u  c #2D4B33",
"i  c #214F32",
"p  c #334335",
"a  c #324C35",
"s  c #334439",
"d  c #344B39",
"f  c #394A3A",
"g  c #3A4A38",
"h  c #245532",
"j  c #235D35",
"k  c #2B5D33",
"l  c #275737",
"z  c #315536",
"x  c #315D36",
"c  c #34543A",
"v  c #3A543B",
"b  c #35593B",
"n  c #3A583A",
"m  c #046C27",
"M  c #0D642D",
"N  c #056C2B",
"B  c #0C6D2D",
"V  c #046724",
"C  c #13632D",
"Z  c #1A642F",
"A  c #126C2D",
"S  c #196A2F",
"D  c #05732D",
"F  c #0B722E",
"G  c #087D2F",
"H  c #12742E",
"J  c #1A712A",
"K  c #0E6632",
"L  c #076D31",
"P  c #0D6D32",
"I  c #156633",
"U  c #1B6434",
"Y  c #136C33",
"T  c #1A6B35",
"R  c #1C6B3B",
"E  c #196839",
"W  c #057232",
"Q  c #0C7332",
"!  c #0C7B34",
"~  c #0C7338",
"^  c #0D7D39",
"/  c #067F30",
"(  c #127433",
")  c #1A7533",
"_  c #127B35",
"`  c #117139",
"'  c #1C723C",
"]  c #137C3A",
"[  c #1B7A3B",
"{  c #2D6234",
"}  c #24653C",
"|  c #246C3B",
" . c #2B6A39",
".. c #316336",
"X. c #316937",
"o. c #36653C",
"O. c #39643F",
"+. c #336C3A",
"@. c #2A733C",
"#. c #24733A",
"$. c #36733D",
"%. c #38753C",
"&. c #39783F",
"*. c #404C3E",
"=. c #3C5742",
"-. c #1B7D40",
";. c #2D6843",
":. c #3A6945",
">. c #227541",
",. c #2B7243",
"<. c #2A7D46",
"1. c #357442",
"2. c #397640",
"3. c #3C7D43",
"4. c #3B7B4C",
"5. c #367647",
"6. c #444D44",
"7. c #435644",
"8. c #447C53",
"9. c #436D45",
"0. c #0A852E",
"q. c #0B8C2D",
"w. c #04872C",
"e. c #118F2D",
"r. c #15872F",
"t. c #0E952E",
"y. c #0D992E",
"u. c #12932E",
"i. c #13982F",
"p. c #068433",
"a. c #0D8334",
"s. c #0C8B33",
"d. c #0D833B",
"f. c #0E8A3B",
"g. c #128336",
"h. c #138D34",
"j. c #1C8C35",
"k. c #13823B",
"l. c #1B823D",
"z. c #148C3B",
"x. c #1C8B39",
"c. c #0E9532",
"v. c #0E923A",
"b. c #0F9830",
"n. c #129433",
"m. c #1A9435",
"M. c #129832",
"N. c #13933A",
"B. c #1B9439",
"V. c #1B9A3B",
"C. c #199939",
"Z. c #22893B",
"A. c #219B3B",
"S. c #299B3E",
"D. c #27953F",
"F. c #20A03F",
"G. c #148341",
"H. c #158842",
"J. c #1E8B43",
"K. c #1C9342",
"L. c #189642",
"P. c #258242",
"I. c #248C43",
"U. c #2D8848",
"Y. c #3D8245",
"T. c #3D844B",
"R. c #358C4B",
"E. c #38884B",
"W. c #279542",
"Q. c #289241",
"!. c #2A9D43",
"~. c #299847",
"^. c #24A242",
"/. c #2BA245",
"(. c #2BA44B",
"). c #2DAA4A",
"_. c #33AA4C",
"`. c #3CAC4E",
"'. c #38A84C",
"]. c #39B14A",
"[. c #33B048",
"{. c #2DAC53",
"}. c #35AC52",
"|. c #3CAC53",
" X c #3DAA56",
".X c #2BB152",
"XX c #34B352",
"oX c #3CB354",
"OX c #3DB458",
"+X c #408547",
"@X c #41864A",
"#X c #438B4C",
"$X c #46924F",
"%X c #448C53",
"&X c #458955",
"*X c #469351",
"=X c #499552",
"-X c #459A52",
";X c #4B9C55",
":X c #4C935A",
">X c #4C9D59",
",X c #479E59",
"<X c #51985B",
"1X c #43AD4D",
"2X c #49A94B",
"3X c #43A949",
"4X c #42B24E",
"5X c #48B24E",
"6X c #4BA453",
"7X c #43AB54",
"8X c #4BAB54",
"9X c #4EA25A",
"0X c #42AE59",
"qX c #43A751",
"wX c #50A457",
"eX c #51A75C",
"rX c #51A85C",
"tX c #51AF57",
"yX c #43B355",
"uX c #43BB55",
"iX c #4BBB56",
"pX c #47BD58",
"aX c #4CBD59",
"sX c #4DB355",
"dX c #52B657",
"fX c #549E61",
"gX c #55A362",
"hX c #57A864",
"jX c #58A766",
"kX c #4BC058",
"lX c #51C05A",
/* pixels */
"eXeXeXrXeXrXeXeXrXrXeXrXeXeXrXrXrXrXeXrXrXrXeXeX9X9XjXrXrXrXeXeXrXrXeXrXeXrXrXrXrXeXeXeXrXrXrXrXrXrX",
"rXeXeXeXeXeXrXeX9XeXeXrXrXrXrXrXeXeXrX<X-X*X-XR.G.G.R.,X-X:X:XeXrXrXeXeXeXeXrXrXrXrXgXrXrXrXrX9XrXrX",
"eXrXeXrXeXeXeXeXeXhXrXeX9XrXrXrXrXhX%X .@.J H l.I.x.x.H ) #. .8.hXrXrXrXrXeXeXgX9XrXrXrXrXrXrXrXrXeX",
"eXeXeXeXrXeXrXeXeXeXeXeXrXrXeX&X,.' >.I.~.D.Z.D.D.!.~.j.Q.~.U.P.R ,.E.9XrXeXrXrXrXrXrXrXrXgXrX9XeXeX",
"rXrXrXrX9XrXrXrXeXeXeXrXeXeX@X,.U.d.K.{.OX}.!.7X7X7X'./.'.|.).W.g.I.<.4.9XrX9XrXrXrXeXrXeXrXrXrXeXeX",
"rX9XrXrXrXrXeXeXeXeXeXeXeXgXT Z.J.n.N..XXXXXyXiX4X1XuXOXoXOX).C.q.j.Z.H -XrXgX9XrXrXeXeXgXeXrXrXeXrX",
"rXrX9XrXrXrXrXeXeXeX>X*X-XJ Z.x.j.)..XXXOXpXkXlXaXaXkXkXkX4X].].[.u.m.Z.( R.-X;XrXeXeXeXrXrXrXrXrXeX",
"eXeXrXrXrXgXeXeXeX,X>.( g.r.h.!._.}.|.1X4XsXaXaXkXkXkXpXiX5X3X3X3X].S.j.g.k.[ ' %XeXeXeXrXrXrX9XeXeX",
"rXrXrXrXeXrXrXhX,X#.J.K.h.B.^._.}.|.8X6X8XdXdXaXkXkXaXaXdXsX2X2X2X1X|.^.B.N.v.J.,.:XeXeXeXeXeXeXrXeX",
"rX9XrXrXeXgX&XR.U.( H.L.n.n.F.XXyX|.qX6XtXtXdXiXuX].pXaXdX8X2X2XqX XoX^.n.v.v.B.[ <.T.%XeXeXrXeXeXeX",
"rXrXrXrXgX4.E ~ ! 0.h.n.n.n.C.C.(.}.0X0X8X6X7X1X].`.4X4X7X8X6X7X X(.~.c.n.M.t.q.a._ ( T 1.fXeXeXeXeX",
"rXrXgXeXE.E -.d.s.C.e.u.u.n.q.t.L.}. XOX7X7X7X1X1X`.7X7X X X0X XOXL.v.N.N.n.n.M.n.s.^ [ ;.5.hXeXeXeX",
"rXrXrX9X| -.^ p.v.n.u.u.i.y.t.u.^.].}.}.|.7X7X7X7X7X X8X7X X X}.oX/.M.n.c.n.n.n.N.v.a.] >.} 8.eXeXeX",
"eXrXrX9XU.-.-.p.s.s.n.u.y.y.y.i.C.V.m.S.0X0X7X7X8X'.7XqX7X0X!.m.V.m.u.u.n.c.M.N.v.a./ [ >.,.4.eXeXeX",
"rXrXrXhXU.[ ] p.w.s.c.n.y.y.y.t.u.m.m._.oX|.}.}. XOX0X X|.yX_.A.u.m.n.n.M.n.n.v.s./ d.k.[ R 9XgXrXeX",
"9XgX&X| I Q d.d./ p.z.h.c.t.n.u.u.m.u.A.!.A.j.!.}./.!.m.B./.A.e.m.M.e.n.n.n.s.N.a.! k.! Q I >.4.fXeX",
"eX>X< T ~ -.k.G.a.a.a.0.q.q.n.n.u.M.u.u.n.h.n.h.n.n.n.m.h.n.M.u.n.M.n.n.s.0.0.0.! k.a.z.^ ~ E , &XeX",
"wX1.U Y ] -.k.d.G.k.a.a.s.q.n.n.u.u.M.M.M.n.u.n.n.n.n.N.n.n.n.u.t.t.n.n.s.q.0.a.g.] k.d.G.G.~ E ;.:X",
"<Xj T ) ! ] H.-.k.k.k.f.p.v.f.n.t.q.u.n.b.b.c.c.n.c.n.M.n.y.b.t.q.q.s.C.h.h.a.a.k.^ k.H.d.d.] T < &X",
"wX| C Q ] ] k.] -.k.k.a.g.N.L.C.c.q.t.u.c.c.b.c.c.c.c.c.c.t.c.c.t.s.C.B.n.k.g.k.[ k.d.d.G.! P R < :X",
"eX-XT B D ] l.] ^ ^ d.d.d.z.L.N.n.c.y.t.y.t.b.b.c.c.t.n.b.y.n.M.n.N.n.N.z.a.d.k.k.] ^ d.H./ B U @.>X",
"eX9XM V D g.l._ ~ ! f.d.d.z.d.h.N.c.i.t.t.i.u.y.c.n.t.n.n.u.n.n.c.C.h.a.z.g.k.] ^ ! ^ z.d.W N : #X9X",
"eX9XT V ! g.g.[ ^ d.d.f.d.d./ p.s.s.t.t.t.M.c.n.n.n.n.u.u.n.M.n.q.n.0.a.k.k.] H.k.^ d.k.d.( A Z #XrX",
"fXj C L ( ] [ l.] ^ d.G.k.d.d./ p.q.c.v.M.n.n.N.n.v.n.n.n.n.n.n.s.0.G a.a.g.k.k.] G.G.] ^ ~ A T < <X",
",Xj R P N B ( [ ( L ! G.G.G.d.d.d.f.f.f.N.h.a.n.C.v.v.c.s.s.z.z.a.a.d.g.l.k.] ! W ~ ] ( F L P Y U &X",
",Xj >.P Q B B B A B W ~ Q ~ k.k.d.a.f.k.d.a.0.s.N.v.s.s.0.a.g.a._ g.] ] ^ Q ~ F B P L B B B Y R < %X",
"wXT.U K N H A A A A F B N D _ k.f.d.a.a.g.g.g.g.a.a.a.a.g.g.g.g.g.l.k._ D m B A T T A D Q B M < 8.*X",
"eX>X%XK M B B H A H H A A ( ] k.d.d.k.g.l.k.g.] g.g.g.] k.g.k.k.g.] l.[ ( B F ( S A Y Q D B K +.T.#X",
"9X;X#XK Y Q Q B Q F F F F F ! a.k.k.d.k.k.] k.k.d.k.k.k.k.g.k.k.] k.] _ F B B A S S F D D L , X.2.@X",
"9X;X%X< I P ~ N Q D B D F B F ^ d.f.d.k.k.k.] G.G.k.k.k.k.k.k.k.k.k.k.Q N D ( A A N D D W Y , O.:.3.",
";X-X#X;., >.Y P L W ] F F V D ~ G W d.d.k.] ^ d.G.d.d.] k.H.H.^ D ! N N ( ( P B P N Q ~ P K ; 0 X.&.",
";X=X@X,.l < I I K Y P B A A Q W m N ! ] ^ ~ ! G.G.d.k.! D ! ] ! D N D Q Y A Y Y T K K M , } h 0 { $.",
";X=X+X&.k q :.;.< < ;., I U A B ( Q N N N N Q ] k.G.] F m m D Q B L ( T I C : U , } ;.:.:.c & 6 ..$.",
"=X$X+X$.{ 6 2 O O l i * * : R T C B Y A Y B P ( _ ( H A B B D B B Y T R , - > ; i O X   O O & 0 ..$.",
";X*XY.2.k 6 o o O + =.s k * ; | } C Z T A A B L Q N H B B Y H A M U U < 1 j h q 5       o o & 0 X.+.",
">X*X@X$.{ 0 2 o     s 6.7.u 7 q k - - C T M N L L ~ P N M K = I > 1 l 6 7 7.v d O         O 6 j +.$.",
">X=X#X2.X.q 4 o .   @ 6.*.7.@ 3 7 & r w Z - = M K K C M C : < ; * & 7 # v v g a X     X o & 0 { &.&.",
">X;X$XY.+.{ 6 & . .   7.9 6.7.# *.9.t 2 7 4 * ; w w 0 4 & 6 2 u 2.=.p f # $ g       . o & 4 e +.2.3.",
">X>X=X+X2.X.q 4 o o . .   + g % :.:.v 9 n n v 8 3 3 8 t v n 8 v :.O.$ b .   .       X O 2 0 { 1.Y.#X",
"wX>X;X#XY.&.{ 0 2 2 .         $ b b f p z n z b b d b +.z c f d c ..d c           . o & 6 { +.3.#X=X",
"wXwX;X*X#X4.+...0 * & o X   . a p s $ z z c x +.X.+.+.z z z z $ s y $ +       o . o & 0 e +.2.#X*X:X",
"eXwX>X;X=X#X3.+.{ e 6 2 & o o 5 k p # a z z a u u a u a z z z @ $ z 5         X & & 6 e X.2.T.#X=X;X",
"eXwXwX>X;X*X@X3.$.X.k 0 * & & o o + + a u s y y a d @ y p u x t O   X   X o o & * 0 k +.$.T.$X=X;XeX",
"eXwXwX9X;X;X*X#X3.2.+.{ k 0 6 & & & O 2 5 + 5 o X o o 5 @ y a . O   o o o & & 6 q k X.2.T.#X=X;X>XeX",
"eXeXeXeXwX>X;X=X#X#X3.$.+.{ k w r 6 4 4 * & 2 & & & & & + & & & O & & & 4 6 0 { X.$.3.+X$X=X;X9XeXwX",
"eXeXeX9XwX9X>X>X;X=X#X+X3.2.$.+.{ ..k e q 0 0 r 6 6 6 6 r r r 7 6 6 0 e k x X.+.&.3.#X*X-X>X9XwXeXeX",
"rXeXeXeXeXwXwX>X;X;X=X#X#XY.2.&.$.$.+.X.+.X.X.{ { k k k e x x ..{ { { +.+.&.&.Y.@X#X*X:X>X9XwXwXeXeX",
"eXeXeXeXeXeXeXwXeX9X;X;X=X#X+X3.3.&.&.%.$.$.$.$.$.$.&.$.%.%.%.%.1.2.3.Y.+X#X$X=X;X9XwXeXeXeXeXeXeXeX",
"eXeXeXeXrXeXrXeXeX9X9X>X;X*X#X#X+XY.Z.8.3.3.3.+X3.3.3.3.3.3.+X3.Y.Y.#X#X$X=X;XwXwXwXeXeXeXeXeXeXeXeX",
"eXeXeXrXeXeXeXeXeXeXwX9X>X;X;X$X$X$X$X#X#X#X#X+X#X+X#X#X#X#X#X#X$X$X$X-X;X>X9XwXwXeXeXeXeXeXeXeXeXeX"
};
