/* XPM */
static char *c7b0e998728441b7fe1ce48e269a59728vxXfIC7LA8QQzxW[] = {
/* columns rows colors chars-per-pixel */
"53 50 191 2 ",
"   c #0D0700",
".  c #0C0C04",
"X  c #0C0F08",
"o  c #140B01",
"O  c #1A0D01",
"+  c #0C1209",
"@  c #0E1B0E",
"#  c #0B1107",
"$  c #101004",
"%  c #1C1202",
"&  c #1B1807",
"*  c #121F10",
"=  c #231301",
"-  c #2A1501",
";  c #2D1900",
":  c #201E09",
">  c #301600",
",  c #341B01",
"<  c #3B1D01",
"1  c #1E230D",
"2  c #132313",
"3  c #1C2713",
"4  c #1F2C16",
"5  c #172E19",
"6  c #132817",
"7  c #1A341E",
"8  c #272006",
"9  c #282009",
"0  c #2C2B0F",
"q  c #3C2302",
"w  c #33260A",
"e  c #33290B",
"r  c #3F2D0A",
"t  c #3B2702",
"y  c #36320F",
"u  c #262810",
"i  c #233C1F",
"p  c #2C3B1C",
"a  c #283317",
"s  c #313012",
"d  c #3B3511",
"f  c #3E3B15",
"g  c #303718",
"h  c #363A15",
"j  c #1E3C22",
"k  c #213C21",
"l  c #401F01",
"z  c #442300",
"x  c #4A2501",
"c  c #432B05",
"v  c #4C2A01",
"b  c #542B01",
"n  c #5A2D01",
"m  c #542602",
"M  c #4B3204",
"N  c #44340B",
"B  c #493409",
"V  c #4E3A08",
"C  c #543303",
"Z  c #5C3201",
"A  c #573A00",
"S  c #50380A",
"D  c #5A3F08",
"F  c #632F01",
"G  c #643401",
"H  c #6D3501",
"J  c #643A00",
"K  c #6C3A01",
"L  c #703700",
"P  c #743A01",
"I  c #7A3E01",
"U  c #33451F",
"Y  c #224325",
"T  c #2A4523",
"R  c #254927",
"E  c #2D4B26",
"W  c #244B29",
"Q  c #294F2A",
"!  c #324A23",
"~  c #364A22",
"^  c #26502C",
"/  c #28542E",
"(  c #35542B",
")  c #345A2F",
"_  c #355027",
"`  c #2A5730",
"'  c #2E5D33",
"]  c #345E32",
"[  c #2E6136",
"{  c #336335",
"}  c #356937",
"|  c #326739",
" . c #356C3B",
".. c #396D3C",
"X. c #3C6835",
"o. c #3A733E",
"O. c #37713E",
"+. c #5F4103",
"@. c #4B4110",
"#. c #664001",
"$. c #6C4904",
"%. c #754100",
"&. c #7D4301",
"*. c #764908",
"=. c #795403",
"-. c #405124",
";. c #397541",
":. c #3B7A43",
">. c #417D44",
",. c #824500",
"<. c #844A01",
"1. c #8B4B01",
"2. c #904D01",
"3. c #875000",
"4. c #8C5500",
"5. c #8E5800",
"6. c #8D5108",
"7. c #845801",
"8. c #965100",
"9. c #9C5301",
"0. c #965E07",
"q. c #A25601",
"w. c #A45B01",
"e. c #AB5B00",
"r. c #B15E00",
"t. c #8D6300",
"y. c #956402",
"u. c #9C6501",
"i. c #9F6903",
"p. c #9B6612",
"a. c #AF6003",
"s. c #A46C04",
"d. c #AC6C00",
"f. c #A2670B",
"g. c #B56200",
"h. c #B96300",
"j. c #B16C00",
"k. c #BC6A06",
"l. c #BD6E09",
"z. c #A47201",
"x. c #AA7400",
"c. c #A97009",
"v. c #AE7B06",
"b. c #B87107",
"n. c #BE7009",
"m. c #B87B0C",
"M. c #A56C12",
"N. c #AC7315",
"B. c #B67F1B",
"V. c #C06E08",
"C. c #C2740D",
"Z. c #C5780E",
"A. c #C27B11",
"S. c #3E8146",
"D. c #3F8349",
"F. c #41864A",
"G. c #458B4D",
"H. c #4A974F",
"J. c #479351",
"K. c #499552",
"L. c #4C9C56",
"P. c #4C9C58",
"I. c #4FA35A",
"U. c #51A75C",
"Y. c #51A85A",
"T. c #50A85C",
"R. c #52A85D",
"E. c #51A95F",
"W. c #51A85C",
"Q. c #50A457",
"!. c #BC8A11",
"~. c #BE8720",
"^. c #CA8315",
"/. c #CD8718",
"(. c #CE8A1B",
"). c #C28A18",
"_. c #D18F1E",
"`. c #CF901F",
"'. c #CE9B1E",
"]. c #D2931F",
"[. c #C38D22",
"{. c #CC9726",
"}. c #D19220",
"|. c #D49B25",
" X c #DA9E26",
".X c #D99E28",
"XX c #D39E2A",
"oX c #DBA42B",
"OX c #D6A229",
"+X c #E1AB2E",
"@X c #E1AB30",
/* pixels */
"U.U.U.U.T.U.Y.U.U.U.U.U.U.U.U.U.U.U.U.E.U.U.U.U.U.U.T.U.R.U.U.U.U.U.U.U.Y.U.T.T.U.U.U.U.U.U.U.U.U.U.U.U.U.",
"U.T.U.U.U.T.U.U.U.U.U.U.U.U.U.U.U.U.U.U.U.U.U.U.U.U.U.U.R.U.U.U.U.U.U.U.U.U.U.T.U.U.U.U.U.T.U.U.U.U.U.U.U.",
"U.U.U.U.U.U.L.F.U.T.U.U.U.U.U.U.U.E.U.U.U.U.U.U.U.U.Y.U.U.U.U.U.I.L.S.{ O.Y E.E.U.U.U.U.U.U.U.U.U.R.U.U.U.",
"U.U.U.U.U.U.>.B k U.U.U.U.U.U.T.U.U.U.U.U.R.U.U.U.U.U.U.U.U.U.L.j S G G Z N E.T.T.U.U.U.U.U.U.U.U.T.U.U.U.",
"U.U.U.U.U.L.2 ,.F : F.U.U.I.U.U.U.U.U.U.U.R.U.U.U.U.U.U.U.U.F.q G q.w.r.f.J ( E.U.U.R.U.U.U.U.U.U.T.U.U.U.",
"U.U.U.U.U.U./ s x , j W 3 E ' [ L.U.E.U.E.U.U.U.U.U.U.T.U.L.4 I 9.h.h.h.g.u.f P.U.U.T.U.U.U.U.U.U.U.U.U.U.",
"U.U.U.U.U.T.K.Q O x ; Z G G < q 4 ;.U.U.U.U.U.U.I.T.T.U.Y.| v 1.r.h.h.h.j.z.+.G.U.U.U.U.U.U.U.U.U.U.U.U.U.",
"U.U.U.U.U.K.3 < H ; 9.9.,.,.I L n = ;.R.U.U.U.U.T.T.T.I.J.9 &.q.h.h.h.h.l.v.v ;.U.U.U.U.U.U.U.U.U.U.U.U.U.",
"R.U.U.U.:.j C 9.9.1.2.,.,.,.L L L c Y I.U.U.U.U.T.T.Q.U.T K 1.h.h.h.C.k.].).B G.U.U.U.U.U.U.U.T.U.U.U.U.U.",
"U.U.U.L.U x H &.,.,.&.&.L P L L P m @ I.U.U.U.U.R.R.G.T = &.q.h.h.h.(.^.oXp.1 L.U.U.U.R.U.U.U.U.U.U.U.U.U.",
"U.T.U.D.< H I H P ,.F P I H P P H I o G.U.U.E.U.U.I.i n x K 2.h.h.^.l..X~.z :.T.U.U.U.T.U.U.U.U.U.U.T.U.U.",
"U.Y.L.@ H L H I L L I L H L n n P L , ' U.T.U.U.U. .< L F z &.1.r.].(.oX*.i T.T.U.U.U.U.U.U.U.U.U.U.U.U.U.",
"U.U.U.7 z L P P L L L m -   o , > F B :.U.U.U.U.U.a H H H b % G u.f.OXN.e G.R.R.U.U.U.U.U.U.U.U.U.U.U.U.U.",
"U.U.U.O.- L P G z O . = b %.,.&.G O + P.U.U.U.U.U.! H L L L L < ; 7.=.; { U.U.U.U.U.U.U.U.U.U.U.U.U.U.U.U.",
"U.R.U.U.X G H K M J y.1.,.&.<.1.,.I ; ;.U.U.U.U.U...q &.,.P K L G b G w G.T.U.U.T.U.U.U.U.U.U.U.U.R.U.U.U.",
"Y.U.U.U.7 x L t 5.y.u.f.q.g.h.e.9.,.m j E.E.T.U.U.I.~ G 8.2.,.P L L L u K.U.U.U.U.U.U.U.U.U.U.U.U.T.U.U.U.",
"T.I.U.U...a O r !.).k.|.g.h.h.h.e.<.L + E.E.T.U.U.U.K.T v b <.P P P l } U.U.U.U.U.R.U.U.R.Q.R.U.U.U.U.U.U.",
"T.U.U.U.Y.G.. 1.oXoXk.oXk.h.h.h.r.2.,.O D.E.U.U.T.U.I.] , - K n H n a U.U.U.U.R.U.U.U.G.O.Y R.T.U.U.U.U.U.",
"T.R.U.U.T.I.5 J {.@XZ.(.l.h.h.h.h.9.,.x Q I.U.U.U.U.U.X.n k ' ..( o.K.R.U.U.U.U.U.U.U.j Z N F.U.U.U.U.U.R.",
"T.Q.U.U.U.U./ < N.@X_.k.Z.h.h.h.h.e.,.K @ U.T.U.R.U.U.>.B Q U.U.U.R.U.R.U.U.U.U.U.U.Q.R m n ] U.U.U.U.U.U.",
"R.U.Y.U.U.U.D.O 6.@XoXl.oXh.h.h.h.h.1.,.. F.U.U.U.U.U.U.I.T.U.T.R.R.R.R.U.U.K.{ ] ] 7 R o b 2 I.U.U.U.U.U.",
"T.R.R.Q.U.U.U.X L |.@Xn./.k.h.h.h.h.2.,.> ' U.U.U.U.U.U.U.U.U.U.R.R.R.Q.P...& B = Z G , l - Y U.R.U.U.U.U.",
"U.U.T.R.U.Y.T.R v N.@X(.h.h.h.h.h.h.e.I s I.I.T.U.U.U.U.U.U.U.U.R.Q.Q.R.| = I H H ,.9.e.= m = * ' U.U.U.U.",
"U.U.U.U.U.U.U.:.= 0.oX.Xh.h.h.h.h.h.e.&.# K.T.T.U.U.U.E.U.U.E.U.R.R.R.R.7 l I P P L ,.2.8.9.q.G e P.U.U.R.",
"U.U.U.U.R.U.U.H.X &.v.OXb.g.h.h.h.h.1.Z ) U.R.T.U.U.U.U.U.U.U.U.Q.R.T.G.& L G P P H &.&.,.,.,.,.n . ' U.U.",
"R.U.U.U.U.U.Q.R.7 N K i.x.d.h.h.h.w.,.r F.U.U.Y.U.U.U.U.U.U.U.U.U.U.R.` > H I H H I P H &.I &.,.I m p U.U.",
"U.U.U.U.U.U.R.R.T.;.= 1.s.x.x.g.q.1.J j Y.U.U.U.U.U.U.U.U.U.U.U.T.R.R.2 b H P Z F L P L L L I L H I q G.U.",
"U.R.U.U.U.U.U.U.T.L.O.O Z 7.1.s.<.< o K.T.U.T.U.U.U.U.U.U.U.U.U.R.T.T...> Z - A . = l P H H P L L L < Y U.",
"U.U.U.U.U.U.U.R.U.U.U.L./ d % c v ! L.Y.U.U.T.U.U.U.U.U.U.U.U.U.Y.U.U.Y % #.t.u.1.$.; o = b H L I F O G.U.",
"U.U.U.U.U.U.U.U.U.U.U.U.I.F.:.} 2 5 U.U.T.T.U.R.U.U.U.U.U.U.U.U.U.Y.Y.@ K [.'.f.u.8.,.K x O , L H n * U.U.",
"U.U.U.U.U.U.U.U.U.U.U.U.U.U.T.T.L...U.U.U.U.U.U.U.U.U.U.U.U.U.U.U.U.O.- p.+XOXl..Xw.1.<.,.,.; F H - / U.U.",
"U.U.U.U.U.U.U.U.U.U.U.U.U.U.T.T.I.Y.U.U.U.U.U.U.U.U.U.U.U.U.U.U.T.T.7 v B.+X/.^.].h.g.e.2.,.v < G # G.U.U.",
"U.U.U.U.U.U.U.U.U.U.U.U.U.U.J.o.] ) >.U.U.U.U.T.U.U.U.T.T.U.U.U.E.P.X &.|.+Xk.(.Z.r.h.h.e.1.H O k ;.U.U.U.",
"U.U.U.U.U.U.U.U.U.U.U.U.K.( v 5.y.f.C p F.U.U.T.U.U.U.U.T.U.U.U.U.{ , M.+X|.k.k.h.h.h.h.r.1.,.= ;.Y.U.U.U.",
"U.U.U.U.U.T.U.U.U.U.U.U.Y J u.j.m. X{.p.c E { :.U.U.R.U.U.U.U.U.U.6 Z [.+X^.(.(.h.h.h.h.r.,.G 2 L.U.U.T.U.",
"U.U.U.U.U.U.U.U.T.U.U.U.| I g.h.h.V./..XXX$.F z g G.U.U.T.U.U.U.J.. ,.oXoXk.(.C.h.h.h.h.2.,.< ` U.E.U.U.U.",
"U.U.U.U.U.U.U.U.U.U.U.U.:.%.e.h.h.k.Z.^.A.y.n L H _ U.U.U.U.U.U.:.c y.XX}.h.h.h.h.h.h.g.<.,.O F.U.U.U.U.U.",
"U.U.U.U.U.U.U.U.U.U.U.U.I.V q.h.h.h.h.k.c.J m P L N P.E.I.U.U.U.U.@ %.!.C.h.h.h.h.h.h.q.,.n 7 U.U.U.U.U.U.",
"U.U.U.U.U.U.U.U.U.U.U.U.U.} J 1.q.g.g.g.,.; P I <.S I.I.T.T.U.U.K.& ,.x.x.h.h.h.h.h.h.1.&.- | U.U.Y.U.U.U.",
"U.U.U.T.U.U.T.U.U.U.U.U.U.P.Q c I 1.q.1.b m P ,.<.g  .P.T.T.U.U.E.Q J s.j.h.h.h.h.h.r.,.&.  L.U.U.U.T.T.U.",
"U.U.U.U.U.U.U.U.U.U.U.U.U.Y.U.G.E z K x < L I 1.b z n X.T.U.U.U.U.J.w y.x.g.h.g.h.g.9.K v j U.U.U.U.U.U.T.",
"U.U.T.U.U.T.U.U.U.U.U.U.U.U.U.T.T.G.T F P P I &.E ..G.U.U.U.E.U.U.U.R G 4.d.r.g.q.<.,.o :.K.U.T.U.U.U.U.U.",
"U.U.U.U.U.U.U.U.U.U.U.U.U.U.U.T.U.U.K.g x G n _ G.Q.U.U.U.U.R.U.U.U.;.2 C 4.&.1.P G s Y U.T.U.U.U.U.T.U.U.",
"U.U.U.U.U.U.U.U.U.U.T.U.Y.U.U.R.U.U.U.Q...! ;.P.R.R.U.R.U.U.Q.U.U.U.U.P.0 v 8 ; h { G.U.U.U.U.U.U.U.U.U.U.",
"U.U.U.T.U.U.U.U.U.U.U.U.U.U.U.U.U.U.U.R.U.U.U.U.R.R.U.U.U.U.U.U.U.U.U.Q./ 2 G.| L.U.U.U.U.U.U.U.U.U.U.U.U.",
"U.U.U.R.U.U.U.U.U.U.U.U.U.U.U.U.U.U.U.U.U.U.U.U.R.R.U.U.U.U.T.R.U.U.U.U.S...T.U.U.U.U.Y.U.U.U.U.U.U.U.U.U.",
"U.U.U.U.U.U.U.U.U.U.U.U.U.U.U.U.U.U.U.U.R.U.R.U.U.U.U.U.U.U.U.U.U.U.U.U.U.U.U.U.U.R.U.U.U.U.U.U.U.U.U.U.U.",
"U.U.U.U.U.U.U.U.U.T.U.T.U.U.U.U.R.U.U.U.U.R.U.U.U.U.U.U.U.U.U.U.T.Y.U.U.U.U.U.U.U.U.U.U.U.U.U.U.U.T.U.U.U.",
"U.U.U.U.U.U.U.U.U.U.U.U.U.U.T.U.U.U.U.U.U.U.T.R.U.U.U.U.U.U.U.U.U.U.U.U.U.U.U.U.U.U.U.U.U.U.U.U.U.U.U.U.U.",
"U.U.U.U.U.U.U.U.U.T.U.U.U.U.U.U.U.U.U.U.U.U.U.U.U.U.U.U.U.U.U.U.U.U.U.U.U.U.U.U.U.U.T.U.U.U.U.U.T.U.U.U.U."
};
