/* XPM */
static char *_dbecc31933f4edfed2892437c14f02fbWC8kqMCfJPYQ3yW[] = {
/* columns rows colors chars-per-pixel */
"50 50 219 2 ",
"   c #0F1816",
".  c #131D16",
"X  c #141D1B",
"o  c #171B16",
"O  c #2C110F",
"+  c #271A15",
"@  c #391915",
"#  c #3B0C0A",
"$  c #17241B",
"%  c #18221E",
"&  c #162819",
"*  c #192D1E",
"=  c #19351F",
"-  c #2D2419",
";  c #1B2524",
":  c #1D2A24",
">  c #1C2729",
",  c #1E292B",
"<  c #1F3B25",
"1  c #1E3626",
"2  c #1F2D30",
"3  c #202C26",
"4  c #222C2D",
"5  c #292E29",
"6  c #213B26",
"7  c #24332C",
"8  c #243C2B",
"9  c #27352B",
"0  c #232F31",
"q  c #243233",
"w  c #2A3534",
"e  c #2B3B33",
"r  c #293739",
"t  c #2B3A3B",
"y  c #273838",
"u  c #333C3C",
"i  c #363A36",
"p  c #30352F",
"a  c #470B0B",
"s  c #5C0202",
"d  c #5E0A09",
"f  c #570505",
"g  c #5D1917",
"h  c #6B0403",
"j  c #630807",
"k  c #7C0103",
"l  c #770002",
"z  c #631618",
"x  c #4D2116",
"c  c #593B3B",
"v  c #643E3B",
"b  c #234329",
"n  c #274B2D",
"m  c #2B4B33",
"M  c #2D4134",
"N  c #35443D",
"B  c #3B403C",
"V  c #2B5432",
"C  c #325E3B",
"Z  c #33633B",
"A  c #376D3E",
"S  c #37713F",
"D  c #38703F",
"F  c #45453F",
"G  c #323E41",
"H  c #344243",
"J  c #3A4445",
"K  c #374549",
"L  c #3B464A",
"P  c #3D494B",
"I  c #3B4848",
"U  c #3F4C51",
"Y  c #3A5745",
"T  c #386A40",
"R  c #3A7342",
"E  c #3C7B45",
"W  c #3E7D48",
"Q  c #464945",
"!  c #4B4D46",
"~  c #424C4D",
"^  c #4A4D4A",
"/  c #414544",
"(  c #544B47",
")  c #53514D",
"_  c #5D544D",
"`  c #434E51",
"'  c #4A4F52",
"]  c #465153",
"[  c #4B5355",
"{  c #4F5956",
"}  c #465259",
"|  c #4C5659",
" . c #4E595B",
".. c #535554",
"X. c #545855",
"o. c #585955",
"O. c #535A5C",
"+. c #5A5D5C",
"@. c #535759",
"#. c #4B504C",
"$. c #625C57",
"%. c #624D47",
"&. c #4F7051",
"*. c #61605C",
"=. c #4D5961",
"-. c #545D62",
";. c #5A5E61",
":. c #575F6A",
">. c #566166",
",. c #5C6365",
"<. c #5C656B",
"1. c #5F696D",
"2. c #55646A",
"3. c #5E6972",
"4. c #626664",
"5. c #62666B",
"6. c #646A6C",
"7. c #6B6D6D",
"8. c #666867",
"9. c #6D706F",
"0. c #656C73",
"q. c #6A6E72",
"w. c #676F79",
"e. c #6D7174",
"r. c #6C747C",
"t. c #6A757B",
"y. c #737475",
"u. c #75797D",
"i. c #7A7D7D",
"p. c #767879",
"a. c #830101",
"s. c #8C0002",
"d. c #940002",
"f. c #9C0304",
"g. c #AA0101",
"h. c #A60306",
"j. c #B70003",
"k. c #BC0204",
"l. c #C60304",
"z. c #D41C1D",
"x. c #C01817",
"c. c #DE3F3C",
"v. c #E33431",
"b. c #3F8249",
"n. c #41844A",
"m. c #448B4D",
"M. c #45904F",
"N. c #478F50",
"B. c #488D51",
"V. c #479251",
"C. c #499653",
"Z. c #4C9B55",
"A. c #4C9C59",
"S. c #4EA259",
"D. c #4EA95C",
"F. c #51A75C",
"G. c #52A85D",
"H. c #7C807F",
"J. c #56A961",
"K. c #59AB63",
"L. c #6D7682",
"P. c #6E7985",
"I. c #747B84",
"U. c #797D82",
"Y. c #797E8A",
"T. c #757A87",
"R. c #767E91",
"E. c #7D8285",
"W. c #7C838D",
"Q. c #768189",
"!. c #7B8593",
"~. c #788694",
"^. c #82858A",
"/. c #868A8C",
"(. c #8A8B8B",
"). c #838A94",
"_. c #888C93",
"`. c #848C9A",
"'. c #818796",
"]. c #8B929C",
"[. c #8A929A",
"{. c #969897",
"}. c #868FA4",
"|. c #8792A5",
" X c #8C95A4",
".X c #8D96A9",
"XX c #8E99AB",
"oX c #9299A5",
"OX c #939CAB",
"+X c #969BA5",
"@X c #939DB2",
"#X c #8F9AB0",
"$X c #96A0AE",
"%X c #9CA2AD",
"&X c #9BA3B3",
"*X c #98A5B8",
"=X c #A2A5A8",
"-X c #A1A9B5",
";X c #A3AABC",
":X c #AAADB5",
">X c #AEB6BF",
",X c #B1B4B9",
"<X c #9EABC1",
"1X c #A4AEC1",
"2X c #AAB3C3",
"3X c #AAB6CC",
"4X c #A6B1C5",
"5X c #B3BBCB",
"6X c #BEBFC3",
"7X c #B9C4D7",
"8X c #BFC2C9",
"9X c #C5C7CC",
"0X c #C6CCD5",
"qX c #CFD3DE",
"wX c #DBDFE7",
"eX c #C2C8E0",
"rX c #DDE4EC",
"tX c #E5E7EA",
"yX c #E6E9F2",
/* pixels */
"J.J.J.J.G.G.G.F.F.F.J.F.G.F.F.G.G.G.G.G.F.G.G.G.G.G.G.G.G.G.G.G.G.G.G.G.G.G.G.G.G.G.G.G.G.G.G.F.G.G.",
"G.G.G.G.S.G.F.F.D.F.F.F.F.F.F.F.G.F.G.G.F.F.F.F.G.G.G.D.F.m.V V V V V V V V C G.G.G.G.G.F.F.G.J.G.S.",
"G.S.G.S.F.F.F.F.F.F.F.F.F.F.F.F.G.G.G.G.F.F.F.F.G.D.S.D.m.m L [ O.-.>.O.-.' J m A G.G.G.F.F.F.F.G.F.",
"G.G.G.G.F.F.F.F.F.F.F.F.F.F.F.F.F.G.S.G.F.F.F.F.G.G.J.C.M ..I.W.oX X%X].`.).e.-.N C F.F.F.F.F.F.G.F.",
"F.F.F.F.F.F.F.F.F.F.F.F.F.F.F.F.F.F.F.F.F.F.F.F.F.F.C.8 @.I.R.oX;X-X;X&X].).Q.u.O.e < R J.S.G.F.F.F.",
"F.F.F.F.F.F.F.F.F.F.F.F.F.F.F.F.F.F.F.F.F.F.F.F.F.S.7 ;.T.Y.oX;X;X;X;XoX].W.0.6.| 5.5.u Z G.G.S.F.F.",
"F.F.F.F.F.F.F.F.F.F.F.F.F.F.F.F.F.F.F.F.F.F.F.F.A.= 5.5X`.Y.'.%X;X$X;XH.9XrX>X] 5.Y.!.<.t W G.G.F.F.",
"F.F.F.F.F.F.F.F.F.F.F.F.D.F.F.F.F.F.F.F.F.F.F.F.F.V.r 9XwX`.Y.'.].&X_.9XtXyXwX8Xr.`.T.y.{ 3 E G.F.F.",
"F.F.F.F.F.F.F.F.D.F.F.F.F.F.F.F.F.F.F.F.G.G.F.F.Z.$ w q [ W.@X&X@X*XtXtX#.* [ tX6Xy.q.-.i X R F.F.F.",
"F.F.F.F.F.F.F.F.F.F.F.F.F.F.F.F.G.G.G.F.F.F.n.n.E : : X.(.X.9X9X9X6.0X{ e 5 {.Q yX:X;.y.I.0.q V.F.F.",
"F.F.F.F.F.F.F.F.F.F.F.F.F.F.F.F.S.G.G.F.G.N.9 ; w ` 4 X ; | 0.9 u.y.9X~ Q 4 % H wX>X].oX'.R.G B.F.F.",
"F.D.F.F.F.F.F.F.F.F.F.F.D.F.F.F.S.G.G.F.F.R J P W.6.@.| B [ B F B e.>XW.( u i H.:X%XOX;X.X~ m C.F.F.",
"F.F.F.F.F.F.F.F.F.F.F.F.F.F.F.F.G.S.G.G.F.G.* 7 !.,.] P X.i ! ! Q p [.0Xu.6.p.,Xy.9._.`.2.X E G.F.F.",
"F.F.F.F.F.F.F.F.F.F.F.F.F.F.F.F.G.G.G.G.G.A N ' O.{ ~ u ; i _ ! Q +.o.y.=XqX,Xp.p.p.7.+.-.:.Y C.F.F.",
"F.F.F.F.F.F.F.F.F.F.F.D.F.F.F.F.G.G.S.G.D * H q.1.6.~ J 3 i $._ F ! w K p.+X(.Y.@X].8.I.!.r.w N.F.F.",
"F.F.F.F.F.D.F.F.F.F.F.F.F.F.F.F.G.G.D.E N ' [ } '. .| u 3 i _ ! p 3 % [ i.oX).+Xr.0.u.'.@.5 C S.F.F.",
"F.F.D.G.F.F.F.F.F.F.F.F.G.S.G.S.S.E < N w.R.!.} } ,.} u : i ( p 3 3 X | .X*X}.2.,.q.U.t.[ 3 R G.G.F.",
"F.F.G.G.F.F.F.F.F.F.D.G.G.G.F.G.b.M ~  .-.0.0.[ L ~ ,.J > w F 9 ; % / +.<.,.=.,.Y.7.,.-.<.| e C.F.F.",
"F.F.S.G.F.F.D.G.F.F.G.F.F.G.B.$ , U -.` L J [ 6.o.| J { u 5 p % X q P.Y.<.!.| r.}.P.} L.<.> R G.J.F.",
"F.F.F.F.F.F.G.G.F.F.G.D.G.b.1 K } | :.:.=.P P ` O.H #.J w ; 3 p P ` } R.!.=.,. .=.O.8.| t X A S.F.F.",
"F.F.G.S.F.F.F.G.D.F.F.F.A.; L | I } 5.0.6.:.=.=. .t H | ~ w t O.6.I.0.| } 6.OX).Q.O.G L K 0 ; b.F.F.",
"F.F.G.G.F.F.F.S.F.F.F.n.: } :.O.H P ,.q.q.;.' y.-.H w  .5.<.O.| t.$X].].~.u. X`.O.J ` O.[ t K X m.F.",
"F.F.D.G.F.F.F.F.F.F.n.8 I <.,.` H ~ {  .~ G | e.,.U r G :.L.[ [ | Q. X~.O.W. X~.J P [ ,.;.J ` % B.F.",
"F.F.F.F.F.F.F.F.F.n.9 L ,.} U K O.[ K H P J G ' U G q G -.` ~ -.>.P.~.-.-.] O.K ~ J O.5.O.L } ; N.F.",
"F.F.F.F.F.F.F.F.G.n r | } H H ,.7.O.I [ ,.O.P q r r t G 0.w.5.<.,.3.3.t.=.1.;.| | I >.{ P I } $ N.G.",
"G.F.G.G.F.F.G.D.b.b q L H G ] q.O.L [ -.| O.K r H K r y :.0.O.| <.T.P.L. .O.,.5.[ J ~ P [ ` } ; B.F.",
"G.G.G.G.F.F.W V : , 0 q q r H [ J | O.` K  .G K G r 2 2 ^ | | ~ -.>.O.~ -.L O.` / ~ P { 6.| U X m.G.",
"S.G.G.G.D.W 1 ; , , 0 t r y r H P { P H K K y r q > , y 0.T.6.] P ~ <.,.6.-.~ | 0.w.Y.r.8.} q C A.G.",
"G.G.F.F.n.: ; 7 0 2 P [ K H 0 7 q K G t t y , > : 4 4 w r.$XR.T.0.~ P | ,.O.O.e.!.|.|.q.w.} ; N.G.F.",
"D.G.D.b.1 ; 2 2 , t | ~ t I J ~ G H H q , , , q y t q O.#X*X*X@XI.>.P.I.~.+.0.Y..X#X|.4.W.=.; N.G.F.",
"F.G.J.S.A   $ > , t H y t U | | P K q 0 t t t t t q t e.!.3XeXeXW.e.&X;X1XO.r..X<X$Xy.8.oX2.; V.G.G.",
"G.G.S.S.T X > > : , , t P  .| U K r w K K P H t q , O.r.7.1.7.2.i.%X7X7X7X@.E.<X5XOX,.4.O.t % V.S.G.",
"F.G.F.E $ > > , q , y H K P K H r y H K K t 0 0 0 ~ I.`.u.W.E.^.e.OX7X8X^.p.;.<.1.6.e.e.| 3 R F.F.F.",
"F.G.G.W ; ; 2 2 , q G t t t 2 ; 4 t t N t y 0 4 | @.*X#X$X1X2X3XoX7.>.<.^.U.[ p.H.H.p.e.J D F.F.F.F.",
"G.G.G.Z.C ; r G r , > : ; , > 2 , , 4 4 , 4 4 ^ I.L.5.$X4X3X4X!.i.).[.>X3Xi.<.OX#X`.8.^ M n.F.G.F.F.",
"D.G.G.S X y G r t q 0 , , q q q 2 > > > , q ~ ^ @X#XI.6.>X5X!.y.(.*X7X0X1Xy.9.O.X.+.#.8 D F.G.F.F.F.",
"G.G.A.V 4 t r 0 4 4 0 0 y y y 2 4 , w i ) q.p.[ ~.).*X).9.p.u.u.6._.:X&Xy.8.e.7.+.X.b &.F.F.F.F.F.F.",
"F.D.V.X w q 0 0 , , q q , , , q p p Q 4./.OXoX7.Q ..~.!.6.e..XOX/.E.i.4.<.e.W.y.| 8 S F.G.F.G.F.F.F.",
"F.F.N.X q 0 0 > > , 3 p u i u F o.) o.8.^.-X7X(...X.' X.X.6.&X7X;XI.[ -...o.+.[ b &.F.F.F.F.F.G.F.F.",
"F.Z.n ; , , > @ # a i ) ! o...) *.4.*.8.).5X7X^.+.#.7.5.<.;.7.P.L.<.4.7...^ 4 9 b.D.F.F.D.F.F.F.F.F.",
"F.A.A X + a a h a.d.z g g @.y.8.$.7.9.y.@X-X=X&X+.! 4.p./.OX|.|.|.^.8.+.5 3 R n.D.D.F.F.G.F.G.G.F.F.",
"F.G.B.O h a.d.d.f.s.k k %.^ o.o.) c z v +X1X5X3X$.X.Q [ O.0.5.-.6.;.o.5 R n.F.G.G.D.G.G.G.G.F.G.F.F.",
"F.V.- x.c.z.l.g.s.d.j.f.( d j j f s # o !.[.E.u J J G J L J w . p o.) J 7 * b S.S.S.S.F.G.S.F.G.F.F.",
"F.N.O z.v.l.k.s.d.j.h.s.j k a.l s a o =.).6.>.8.X X X X X . 4 ; . o.| O.9.[ w $ & & & Z G.F.F.F.F.F.",
"F.V.+ h.k.s.k g.k.d.a.j s d.l a o o V T [ r.@XW.| 3 ; 7 Z 3 w / ~ X.~ 7.,.y.;.7.~ 0 q ; C S.G.G.F.F.",
"F.G.V.x a.a j g.h f f + & h a b A q i 5.'..X5.7.7.2X X$Xq J . . % & $ & B H 7 J / : , 4 % W G.S.F.F.",
"S.G.S.W 6 6 x h - 6 6 B.S.6 n m.8 q / | o.~ 8 b 8 H *.[ ^ q 5 A S.S.S.S.n b m.6 8 6 6 < S S.G.G.F.F.",
"G.G.D.G.F.G.D 6 n.G.F.F.F.F.F.F.n.< < < 6 < V.F.S.b < < 6 6 R F.D.G.G.D.G.G.G.S.G.G.G.G.D.F.G.G.F.F.",
"G.J.K.K.J.G.J.G.G.G.G.G.G.K.G.G.G.G.G.G.G.G.G.G.G.G.G.J.F.G.G.G.G.J.K.K.G.J.K.G.K.J.K.K.K.K.K.K.K.K.",
"K.K.K.K.K.K.K.K.K.K.K.K.K.K.K.G.K.G.G.K.G.K.G.G.G.G.G.G.G.G.G.G.G.G.G.G.F.G.G.G.G.G.J.J.J.F.J.F.G.F."
};
